<svg width="22" height="22" viewBox="0 0 22 22" fill="none" xmlns="http://www.w3.org/2000/svg">
<path d="M2.74996 3.66667V14.6667H19.25V3.66667H2.74996ZM2.74996 1.83333H19.25C19.7362 1.83333 20.2025 2.02649 20.5463 2.3703C20.8901 2.71412 21.0833 3.18044 21.0833 3.66667V14.6667C21.0833 15.1525 20.8908 15.62 20.5425 15.9592C20.2033 16.3075 19.7358 16.5 19.25 16.5H12.8333V18.3333H14.6666V20.1667H7.33329V18.3333H9.16663V16.5H2.74996C2.26413 16.5 1.79663 16.3075 1.45746 15.9592C1.10913 15.62 0.916626 15.1525 0.916626 14.6667V3.66667C0.916626 2.64917 1.73246 1.83333 2.74996 1.83333ZM9.93663 8.18583C10.2208 7.91083 10.6058 7.74583 11 7.74583C11.3941 7.755 11.7791 7.91083 12.0633 8.195C12.3383 8.47 12.5033 8.855 12.5033 9.24917C12.5033 9.6525 12.3383 10.0283 12.0633 10.3125C11.7791 10.5967 11.3941 10.7525 11 10.7525C10.6058 10.7525 10.2208 10.5875 9.93663 10.3125C9.66163 10.0283 9.49662 9.6525 9.49662 9.24917C9.49662 8.855 9.66163 8.47 9.93663 8.18583ZM9.23079 11C9.4599 11.238 9.73468 11.4273 10.0387 11.5566C10.3427 11.6859 10.6696 11.7526 11 11.7526C11.3303 11.7526 11.6573 11.6859 11.9613 11.5566C12.2652 11.4273 12.54 11.238 12.7691 11C13.2366 10.5417 13.5025 9.90917 13.5025 9.24917C13.5025 8.58917 13.2366 7.9475 12.7691 7.48C12.3016 7.0125 11.66 6.74667 11 6.74667C10.34 6.74667 9.69829 7.0125 9.23079 7.48C8.76329 7.9475 8.49746 8.58917 8.49746 9.24917C8.49746 9.90917 8.76329 10.5417 9.23079 11ZM5.49996 9.24917C5.93434 8.14429 6.69128 7.19578 7.67225 6.52708C8.65321 5.85839 9.81276 5.5005 11 5.5C13.5025 5.5 15.6383 7.05833 16.5 9.24917C16.0687 10.3562 15.3125 11.3067 14.3308 11.9759C13.3492 12.645 12.188 13.0015 11 12.9983C8.49746 12.9983 6.36163 11.4583 5.49996 9.24917Z" fill="#8C8C8C"/>
</svg>
